# xmcd
#
# Track frame offsets: 
#        150
#        20409
#        39243
#        56429
#        75721
#        91446
#        106122
#        121046
#        141490
#        165238
#        184013
#        200735
#        223173
#        239327
#        259129
#        276167
#        293007
#        309285
#        325534
#        341123
#
# Disc length: 4797 seconds
#
# Revision: 0
# Processed by: cddbd v1.5.2PL0 Copyright (c) Steve Scherf et al.
# Submitted via: ExactAudioCopy v0.99pb4
#
DISCID=1812bb14
DTITLE=Various Artist - prevue promo 1121A-4
DYEAR=2003
DGENRE=pop
TTITLE0=Tye - America
TTITLE1=Dream - That's OK
TTITLE2=Uncle Kracker - Memphis Soul Song(Remix)
TTITLE3=Bangles - Something That You Said
TTITLE4=Nikki Cleary - 1-2-3
TTITLE5=Lumidee feat. N.O.R.E. and DJ Tedsmooth - Crashin' A Party
TTITLE6=Bad Boy's Da Band - Bad Boy This Bad Boy That
TTITLE7=Chingy feat. Ludacris and Snoop Dogg - Holidae In(Super Clean Ve
TTITLE7=rsion)
TTITLE8=Chingy feat. Ludacris and Snoop Dogg - Holidae In(LYRICS!!! - "C
TTITLE8=lean Album Version")
TTITLE9=Monica feat. Dirtbag - Get It Off
TTITLE10=Juelz Santana - Dipset (Santana's Town -Lyric!)
TTITLE11=Widespread Panic - Fishing
TTITLE12=Ian Anderson - A Raft Of Penguins
TTITLE13=Minibar - It Is What It Is
TTITLE14=Eamon - Fxxk It(Clean)
TTITLE15=LaGuardia - Bull Ride
TTITLE16=RX Bandits - Sell You Beautiful(Lyrics - "Album Version" - Ab
TTITLE16=rupt Ending)
TTITLE17=Black Label Society - Blessed Hellride, The
TTITLE18=Longwave - Tidal Wave
TTITLE19=Deftones - Hexagram(LYRICS)
EXTD=
EXTT0=
EXTT1=
EXTT2=
EXTT3=
EXTT4=
EXTT5=
EXTT6=
EXTT7=
EXTT8=
EXTT9=
EXTT10=
EXTT11=
EXTT12=
EXTT13=
EXTT14=
EXTT15=
EXTT16=
EXTT17=
EXTT18=
EXTT19=
PLAYORDER=
